<?xml version="1.0" encoding="utf-8"?>
<!-- Generator: Adobe Illustrator 19.0.0, SVG Export Plug-In . SVG Version: 6.00 Build 0)  -->
<svg version="1.1" id="Camada_1" xmlns="http://www.w3.org/2000/svg" xmlns:xlink="http://www.w3.org/1999/xlink" x="0px" y="0px"
	 viewBox="0 0 995.8 222" style="enable-background:new 0 0 995.8 222;" xml:space="preserve">
<style type="text/css">
	.st0{fill:#111111;stroke:#111111;stroke-width:8;stroke-miterlimit:10;}
	.st1{font-family:'Bahnschrift';}
	.st2{font-size:136.4997px;}
	.st3{fill:#111111;stroke:#111111;stroke-miterlimit:10;}
	.st4{font-family:'Arial-BoldMT';}
	.st5{fill:#111111;stroke:#111111;stroke-width:7;stroke-miterlimit:10;}
	.st6{fill:#111111;}
	.st7{fill:none;stroke:#111111;stroke-width:7;stroke-miterlimit:10;}
</style>
<text id="XMLID_1_" transform="matrix(1.4026 0 0 1 36.9985 159.9082)"><tspan x="0" y="0" class="st0 st1 st2">  FRIXEL</tspan><tspan x="486.8" y="0" class="st3 st4 st2"> </tspan></text>
<line id="XMLID_109_" class="st5" x1="887.2" y1="71.2" x2="858.8" y2="81.2"/>
<line id="XMLID_112_" class="st5" x1="757.8" y1="140.5" x2="783.6" y2="126.3"/>
<g id="XMLID_125_">
	<g id="XMLID_11_">
		<polygon id="XMLID_13_" class="st6" points="822.2,30.8 822.3,61 820.5,61.8 781.3,80.6 757.4,66.9 756.1,66.9 756.1,66 		"/>
	</g>
	<g id="XMLID_12_">
		<polygon id="XMLID_19_" class="st7" points="822.2,30.8 888.4,70.5 888.5,145.4 822.4,180.6 756.1,140.9 756.1,66.9 756.1,66 		
			"/>
		<polyline id="XMLID_18_" class="st7" points="757.4,66.9 781.3,80.6 782.8,81.5 		"/>
		<line id="XMLID_17_" class="st7" x1="822.2" y1="30.8" x2="822.3" y2="61"/>
		<polyline id="XMLID_16_" class="st7" points="779.7,81.3 781.3,80.6 820.5,61.8 		"/>
	</g>
</g>
<line id="XMLID_114_" class="st5" x1="822.3" y1="61" x2="861.5" y2="81.2"/>
<g id="XMLID_117_">
	<g id="XMLID_2_">
	</g>
	<g id="XMLID_3_">
		<polyline id="XMLID_10_" class="st7" points="888.5,145.4 865.9,128.3 864.1,127 		"/>
		<line id="XMLID_5_" class="st7" x1="822.4" y1="180.6" x2="822.2" y2="150.5"/>
		<polyline id="XMLID_4_" class="st7" points="867.8,127.3 865.9,128.3 822.2,150.5 		"/>
	</g>
</g>
<line id="XMLID_116_" class="st5" x1="820.8" y1="149.8" x2="780.1" y2="126.3"/>
<g id="XMLID_6_">
	<g id="XMLID_61_">
		<path id="XMLID_65_" class="st6" d="M822,61.7C822.3,62.5,822.1,61.9,822,61.7c-0.1-0.4,0.1,0.6,0.1,0.2c0-0.4-0.1,0.6-0.1,0.3
			c0.1-0.2-0.3,0.6-0.1,0.3c-0.1,0.1-0.2,0.2-0.3,0.4c-0.4,0.3-0.5,0.4-0.3,0.2c0.2-0.1-0.6,0.2-0.2,0.1c0.4-0.1-0.6,0-0.1,0
			c1.3,0,2.6-1.1,2.5-2.5c-0.1-1.3-1.1-2.5-2.5-2.5c-1.5,0-3,0.7-3.6,2.2c-0.5,1.3-0.2,2.5,0.3,3.7c0.2,0.5,1,1,1.5,1.1
			c0.6,0.2,1.4,0.1,1.9-0.3C822.3,64.3,822.5,63,822,61.7L822,61.7z"/>
	</g>
</g>
<g id="XMLID_7_">
	<g id="XMLID_55_">
		<path id="XMLID_59_" class="st6" d="M821.6,148.2c0.9,0.1,0.5,0.1,0.2,0c-0.1,0-0.4-0.2,0,0c0.4,0.2,0.1,0,0,0
			c-0.1,0-0.1-0.1-0.2-0.1c-0.3-0.2,0.4,0.3,0.2,0.2c-0.1-0.1-0.1,0,0.3,0.3c0.1,0.2,0.1,0.3,0.2,0.5c0,0.4,0,0.7,0,1.1
			c-0.6,0.9-0.8,1.1-0.4,0.8c1-0.9,1-2.6,0-3.5c-1-0.9-2.5-0.9-3.5,0c-1.3,1.2-1.2,3.3,0.1,4.4c0.9,0.8,2,1.2,3.1,1.3
			c1.3,0.1,2.6-1.2,2.5-2.5C824,149.2,823,148.3,821.6,148.2L821.6,148.2z"/>
	</g>
</g>
<g id="XMLID_8_">
	<g id="XMLID_49_">
		<path id="XMLID_53_" class="st6" d="M822.7,152.1c0,5.5,0,11.1,0,16.6c0,2.6-1,7,2.3,8c3.1,1,6.1-2.3,8.6-3.6
			c1.5-0.7,3.5-2,5.2-2.5c1.5-0.4,2.9-0.2,4.3-0.9c3-1.4,5.4-4.6,8.2-6.5c3.5-2.4,7.7-4.3,11.5-6.1c4.2-2,8.6-3.7,12.9-5.3
			c2.7-1,4.9-3.7,7-5.7c1.1-1.1,0.9-3.2-0.5-3.9c-5.2-2.7-9.1-7.4-13.9-10.6c-3.6-2.4-9.1,0.9-12.5,2.7c-1.8,0.9-2.9,2.6-4.6,3.6
			c-2.5,1.6-6.2,2.4-9,3.4c-5.7,2.2-10.7,4.2-15.9,7.5c-2.7,1.7-0.2,6,2.5,4.3c4.5-2.8,8.7-4.7,13.7-6.6c4.3-1.6,9.8-2.9,13.3-5.9
			c3.3-2.9,8.4-6.2,12.2-2.6c3.3,3.1,7.6,6.4,11.6,8.5c-0.2-1.3-0.3-2.6-0.5-3.9c-9.2,8.7-23.2,10.7-33.4,18.5
			c-1.1,0.8-2.1,1.7-3.2,2.5c-1.5,1.2-2.3,1.3-4.1,1.9c-2.7,0.8-5.5,2.2-8,3.6c-1.2,0.6-2.2,1.5-3.4,2.2c0.7,1.6,0.9,1.3,0.6-0.8
			c0-1.2,0-2.4,0-3.6c0-4.9,0-9.9,0-14.8C827.7,148.9,822.7,148.9,822.7,152.1L822.7,152.1z"/>
	</g>
</g>
<g id="XMLID_9_">
	<g id="XMLID_43_">
		<path id="XMLID_47_" class="st6" d="M825.2,151c0,7.2-1.2,14.8-0.2,21.9c0.2,1.7,2.4,2.1,3.7,1.5c1.3-0.6,1.9-1.8,2.8-2.8
			c2.2-2.3,4.9-3.6,7.8-4.9c4.1-1.9,8.2-3.7,12.2-5.7c4.8-2.3,9.6-4.5,14.4-6.9c2.2-1.1,4.2-2.3,6.3-3.5c2.2-1.2,4.7-1.6,6.8-3
			c1.5-0.9,1.7-3.4,0-4.3c-5.1-2.6-7.9-8.3-14-9c-5.5-0.6-8.5,3.7-13.1,5.8c-2.5,1.1-5,1.4-7.6,2c-2.8,0.8-5.3,2.4-7.8,3.8
			c-4,2.4-7.6,3.8-10.5,7.6c-1.9,2.6,2.4,5.1,4.3,2.5c2.2-2.9,6.3-4.3,9.3-6.2c4.3-2.6,8.5-3.1,13.1-4.7c3.9-1.5,7.8-6.7,12.3-5.7
			c4.4,0.9,7.4,6.2,11.4,8.3c0-1.4,0-2.9,0-4.3c-1.8,1.1-4.3,1.6-6.2,2.6c-2.3,1.2-4.5,2.6-6.9,3.8c-4.9,2.4-9.9,4.6-14.8,7
			c-4.2,2-8.5,3.9-12.7,5.9c-2.2,1.1-4.4,2.2-6.3,3.8c-1,0.9-2.1,2.9-3.3,3.5c1.2,0.5,2.4,1,3.7,1.5c-0.9-6.6,0.4-13.9,0.4-20.6
			C830.3,147.8,825.3,147.8,825.2,151L825.2,151z"/>
	</g>
</g>
<g id="XMLID_14_">
	<g id="XMLID_37_">
		<path id="XMLID_41_" class="st6" d="M833.2,151.1c-3,3.9-3.2,8.5-4.9,13c1.6,0.2,3.3,0.4,4.9,0.7c-0.4-3.1,1.4-6.3,0.8-9.5
			c-0.4-2.6-4.2-2.2-4.8,0c-1,3.3-1.6,7.3-0.9,10.7c0.4,2.2,3.5,2.3,4.6,0.6c2.7-4.5,3.4-10.4,6.8-14.5c-1.3-0.2-2.6-0.3-3.9-0.5
			c-0.4-0.9-0.4,0.8-0.6,1.2c-0.5,1.1-0.6,2.7-0.9,3.9c-0.4,1.9-0.9,3.7-0.6,5.6c0.3,2.2,3.4,3.7,4.7,1.3c1.2-2.4,1.5-5.1,1.7-7.8
			c0.2-2.8-4.4-3.4-4.9-0.7c-0.6,3.7-1,7.4-1.5,11.1c1.6,0,3.2,0,4.8,0c-1.1-3.9,1.7-11.8,3.9-15.1c-0.7,0.4-1.4,0.8-2.2,1.2
			c0.2,0,0.5-0.1,0.7-0.1c-0.7-0.4-1.4-0.8-2.2-1.2c0.6,1-0.9,5.2-1.2,6.4c1.6,0,3.2,0,4.8,0c-0.4-2.6,0.2-8.2,1.4-10.7
			c-1.5-0.2-3-0.4-4.6-0.6c1.1,2.6-0.4,6.4-0.7,9.1c-0.4,3.1-0.1,6.3-0.5,9.3c1.5-0.2,3-0.4,4.6-0.6c-0.8-1.8-0.6-6.7,0.2-8.5
			c-1.5-0.2-3-0.4-4.6-0.6c0.6,1.8-2.4,11.7-4.4,12.6c1.2,0.5,2.4,1,3.7,1.5c-0.7-3.9,1-8.3,3-11.6c0.7-1.2,2.6-3,1.9-4.6
			c0.6,1.1-0.6,4-1.4,4.8c1.4,0.4,2.8,0.7,4.2,1.1c-0.7-1.7-0.3-7.4,0.8-8.9c-1.3-0.2-2.6-0.3-3.9-0.5c0.6,0.9-0.1,6-0.4,6.6
			c1.3-0.2,2.6-0.3,3.9-0.5c0.6,0.4,0.3-1.9,0.4-2.9c0.1-0.8,0.5-2.4,0.4-3.2c-0.3-1.3,1.6-1.3-1.3-1.2c-2.2,0.1-1.6,0.6-1.6,2.4
			c0,2.7,0,5.4,0,8.1c1.7,0,3.3,0,5,0c0-2.9,0.2-5.5,0.7-8.3c0-0.1,1-4.6,0.6-4.5c-0.9-0.4-1.9-0.8-2.8-1.1c1,1.4,0.2,8.8-0.5,10.6
			c1.6,0,3.2,0,4.8,0c-0.2-1.8-0.1-3.6,0-5.3c0.2-3.2-4.8-3.2-5,0c0,0.1-0.6,8.5-0.9,8.7c1.2,0.5,2.4,1,3.7,1.5
			c-0.6-2-0.9-6.2,0-8.2c-1.5-0.6-3-1.3-4.6-1.9c-0.2,1.4-1.3,3.6-2.1,4.7c0.3-0.5-3.7,4.2-4.3,4c0.6,0.6,1.2,1.2,1.7,1.7
			c-0.9-2.9,7.5-10.2,9.9-11.1c-1.1-0.8-2.1-1.6-3.2-2.4c0,0.1-2.2,1.4-2.7,1.7c1.2,0.9,2.4,1.9,3.7,2.8c0.5-1.6,3.6-1.4,1.6,1.6
			c1.4,0,2.9,0,4.3,0c-0.5-0.8,1.2-4,1.5-4.4c-1.3,0.2-2.6,0.3-3.9,0.5c0,0-1.9,7.1-0.6,6.2c1.2,0.5,2.4,1,3.7,1.5
			c-1.1-2.6,0.1-6.3,0.7-8.9c0.2-0.7,0.2-1.8,0.5-2.4c-0.6,1.2,0.5-0.3,0.7-0.5c1.8-2.3-0.4-5.1-3-3.9c-1.7,0.7-3.5,1.8-4,3.7
			c-0.3,1.2,0.4,2.8,1.7,3.1c2.1,0.4,2.1-0.4,2,1.9c-0.2,2.1-0.8,4.1-0.9,6.3c1.7,0,3.3,0,5,0c0.1-3.6,0.8-7.1,1.2-10.6
			c0.3-2.3-0.5-8.6,1-10.5c-1.4,0-2.9,0-4.3,0c1,2.1,0.4,6.6,0.4,8.8c0,2.7,0.5,5.4,0.4,8.1c-0.1,3.2,4.9,3.2,5,0
			c0.1-3.6-0.2-7.3-0.4-10.9c-0.1-2.7,0.2-6.1-1-8.6c-0.9-1.8-3.3-1.4-4.3,0c-1.9,2.6-1,6.2-1.3,9.2c-0.3,4.8-1.5,9.6-1.6,14.4
			c-0.1,3.2,4.9,3.2,5,0c0.1-3.3,2.2-7.7,0.7-10.9c-1.3-2.7-3.2-1.7-5.4-2.1c0.6,1,1.2,2.1,1.7,3.1c-0.4,1.3,1.1-0.4,1.7-0.7
			c-1-1.3-2-2.6-3-3.9c-3.1,3.9-5.2,11.8-3.2,16.7c0.6,1.4,2.2,2.5,3.7,1.5c2.6-1.7,1.9-4.5,2.3-7.3c0.4-2.4,1-4.8-0.7-6.8
			c-1.1-1.3-3.1-0.7-3.9,0.5c-1.6,2.4-3.2,6.8-1.5,9.4c1.1,1.6,3.2,1.6,4.3,0c1.9-2.8,3.1-8.5-1.1-10.1c-3.4-1.3-8.5,1.3-9.6,4.6
			c-0.7,2.2,1.8,3.8,3.7,2.8c2.3-1.2,5.1-3.1,5.1-6c0-1.5-1.6-3-3.2-2.4c-4,1.5-8.3,5.7-10.8,9c-1.5,2-3.9,6-2.4,8.5
			c4,7.1,13.6-7,14.2-10.8c0.4-2.5-3.3-4.7-4.6-1.9c-1.6,3.4-1.6,8.6-0.5,12.1c0.4,1.4,2.3,2.5,3.7,1.5c3.3-2.4,3.1-9.4,3.3-13
			c-1.7,0-3.3,0-5,0c-0.1,2.3-0.2,4.4,0.2,6.7c0.4,2.7,4.1,2,4.8,0c0.9-2.4,0.7-6,0.8-8.5c0-2,0.5-4.3-0.8-6
			c-0.7-0.9-1.7-1.5-2.8-1.1c-2.6,0.7-3,2.9-3.6,5.3c-0.9,4.2-1.5,8-1.5,12.3c0,3.2,5,3.2,5,0c0-2.7,0-5.4,0-8.1
			c0-1.6,0.4-3.6-0.3-5c-1.2-2.2-3.8-2.5-5.4-0.6c-2,2.3-3.2,12-0.6,14c1.2,0.9,3.2,1.1,3.9-0.5c1.3-2.8,2.3-8.9,0.4-11.7
			c-0.8-1.2-2.8-1.9-3.9-0.5c-2.4,3.1-3.5,10.1-2.1,13.7c0.7,1.8,2.7,2.4,4.2,1.1c3.2-2.8,5-14.1-1.9-12.5
			c-7.5,1.7-10.9,15.4-9.8,21.7c0.3,1.7,2.4,2.1,3.7,1.5c2.5-1.1,3.2-4.6,4.2-6.9c1.4-3.3,3.6-7.8,2.5-11.4
			c-0.6-1.9-3.6-2.7-4.6-0.6c-1.7,3.9-1.9,9.7-0.2,13.6c0.8,1.9,4.3,1.5,4.6-0.6c0.6-4.1,0.3-8.2,1-12.4c0.4-2.7,1.3-6.1,0.3-8.7
			c-0.7-1.7-3.6-2.8-4.6-0.6c-1.8,3.9-2.6,10.4-1.9,14.6c0.4,2.5,4.3,2.3,4.8,0c0.7-3,2.5-7.4,0.7-10.3c-0.4-0.7-1.3-1.3-2.2-1.2
			c-3.7,0.5-4.5,4.2-5.5,7.4c-1.2,4-3,8.7-1.8,12.9c0.6,2.2,4.4,2.6,4.8,0c0.5-3.7,0.9-7.4,1.5-11.1c-1.6-0.2-3.3-0.4-4.9-0.7
			c-0.1,1.3-0.4,3.9-1.1,5.3c1.6,0.4,3.1,0.8,4.7,1.3c-0.5-4.3,3.4-9.2,1.4-13.2c-0.7-1.4-3-1.7-3.9-0.5c-3.7,4.5-4.6,10.6-7.6,15.5
			c1.5,0.2,3,0.4,4.6,0.6c-0.4-2.4,0.2-5.7,0.9-8.1c-1.6,0-3.2,0-4.8,0c0.5,2.8-1.3,5.5-1,8.2c0.3,2.8,3.8,3.4,4.9,0.7
			c1.4-3.4,1.2-7.7,3.6-10.7C838.7,152.1,835.2,148.5,833.2,151.1L833.2,151.1z"/>
	</g>
</g>
<g id="XMLID_15_">
	<g id="XMLID_31_">
		<path id="XMLID_35_" class="st6" d="M861.7,152.6c-1.1-1.6-0.2-3.4-0.4-5.1c-0.2-1.5,0.7-2.1-1.2-1.5c-1.7,0.6-0.9,3.9-0.5,5.6
			c0.3,1.1-0.4,2.4,1,1.4c0.8,0,1.7,0,2.5,0c-0.9-0.4-0.8-4.9-0.8-5.6c0-0.6-0.1-2.5,0.1-2.9c0.9-1.5,3.2,1,3.7,0.5
			c1-0.1,2-0.3,3-0.4c-1.4-0.2-1.9,0.2-1.6,1.2c0.1,1.9,2.1,3.1,3.8,2.2c0.5-0.3,1.1-0.6,1.6-0.9c-0.8,0-1.7,0-2.5,0
			c0.1-1.6-0.5-2.4-1.8-2.4c-0.9-0.4-1-0.2-0.3,0.5c0,0.8,0,1.7,0,2.5c-1.1-0.5-2.1-1-3.2-1.5c-2.1,0.2-3.4,2.6-1.8,4.3
			c0.2,0.2,0.5,0.4,0.7,0.7c-0.1-1-0.3-2-0.4-3c-1.8,3.6-7.8,2.9-10.9,3.8c-2.9,0.9-5.4,2.5-7.7,4.4c-2,1.6-4,3-6,4.5
			c-0.5,0.4-1,0.7-1.4,1.1c-0.5,0.6-0.8,0.5-0.9-0.4c-1.7-0.9-1.5-4.7-1.2-6.4c-0.1-1.2,0.3-2.2,1.2-2.8c0.5,0,1-0.2,1.3-0.6
			c0.1,3.2,5.1,3.2,5,0c-0.2-1.1,0-2.1,0.7-3c1.9-0.9,2.6-0.6,2.3,0.9c0.5,1.1-0.1,3.6-0.8,4.7c-1.6,2.8,2.7,5.3,4.3,2.5
			c2-3.4,2.9-11.3-1-13.7c-5.6-3.4-10.6,3.7-10.5,8.6c1.7,0,3.3,0,5,0c-0.2-5.3-6.2-6-9.8-3c-4.5,3.7-3.4,12.1-0.2,16.3
			c4.7,6.1,10.7-1.2,15-4.7c2.5-2,5.2-3.7,8.4-4c1.6-0.2,3,0,4.5-0.5c2.6-1,5.8-2.5,7.1-5.1c0.5-1,0.4-2.2-0.4-3
			c-0.2-0.2-0.5-0.4-0.7-0.7c-0.6,1.4-1.2,2.8-1.8,4.3c2.8-0.3,6.7-3.1,4.8-6.4c-1.4-2.5-4.6-1.6-5.9,0.4c-0.5,0.7-0.4,1.8,0,2.5
			c1.2,2.2,6.7,3.2,8.9,2.1c3.1-1.5,2.7-5.4,0-7c-0.8-0.5-1.8-0.5-2.5,0c-0.5,0.3-1,0.6-1.6,0.9c1.3,0.7,2.5,1.4,3.8,2.2
			c-0.1-3.3-2.2-6.9-5.9-4.3c-2.5,1.8-2.9,5.9,0,7.3c1,0.5,2.2,0.5,3-0.4c3.3-3.5-0.6-8.6-4.5-9.5c-4.5-1.1-7.8,2.8-6.4,7.1
			c1.2,3.7,6.3,4.7,8,0.8c1.6-3.9-2-9.5-6.3-8.1c-4.1,1.3-4.2,8.5-1.2,11c3.2,2.6,7-0.9,6.3-4.4c-0.8-4-6.3-5.2-7.9-1.1
			c-1.3,3.1-0.5,11.4,3,13.1c0.8,0.4,1.8,0.5,2.5,0c2.5-1.7,1.6-4.6,1.4-7.2c-0.3-2.8-0.5-8.2-3.9-9.1c-6.1-1.8-5,11.5-3.3,14.1
			C859.1,157.8,863.5,155.3,861.7,152.6L861.7,152.6z"/>
	</g>
</g>
</svg>
