<?xml version="1.0" encoding="utf-8"?>
<!-- Generator: Adobe Illustrator 19.0.0, SVG Export Plug-In . SVG Version: 6.00 Build 0)  -->
<svg version="1.1" id="Camada_1" xmlns="http://www.w3.org/2000/svg" xmlns:xlink="http://www.w3.org/1999/xlink" x="0px" y="0px"
	 viewBox="0 0 470 549" style="enable-background:new 0 0 470 549;" xml:space="preserve">
<style type="text/css">
	.st0{fill:none;stroke:#DEDC1C;stroke-width:9;stroke-miterlimit:10;}
	.st1{fill:#DEDC1C;}
</style>
<path id="XMLID_13_" class="st0" d="M235.6,12.6L7.1,143.5L6.3,406.8l227.6,132.4l228.5-130.9l0.8-263.3L235.6,12.6z"/>
<line id="XMLID_3_" class="st0" x1="235.6" y1="12.6" x2="234.7" y2="89.2"/>
<line id="XMLID_4_" class="st0" x1="8.7" y1="139.5" x2="69.4" y2="186.1"/>
<line id="XMLID_1_" class="st0" x1="463.2" y1="145" x2="405" y2="186.2"/>
<line id="XMLID_2_" class="st0" x1="462.3" y1="408.3" x2="404.5" y2="372.9"/>
<line id="XMLID_5_" class="st0" x1="234.7" y1="534" x2="234.7" y2="473"/>
<line id="XMLID_6_" class="st0" x1="6.3" y1="406.8" x2="66.3" y2="374"/>
<line id="XMLID_7_" class="st0" x1="64.4" y1="185.7" x2="237.1" y2="87.9"/>
<line id="XMLID_8_" class="st0" x1="235.6" y1="89.7" x2="409.7" y2="185.8"/>
<line id="XMLID_9_" class="st0" x1="408.8" y1="372.9" x2="234.7" y2="473"/>
<line id="XMLID_10_" class="st0" x1="236.5" y1="473.8" x2="63.8" y2="374.8"/>
<g id="XMLID_91_">
	<g id="XMLID_140_">
		<path id="XMLID_145_" class="st1" d="M231.6,25c0.6,19.3,1.3,38.7,1.9,58c0.3,9.6,15.3,9.7,15,0c-0.6-19.3-1.3-38.7-1.9-58
			C246.3,15.4,231.3,15.3,231.6,25L231.6,25z"/>
	</g>
</g>
<g id="XMLID_92_">
	<g id="XMLID_133_">
		<path id="XMLID_138_" class="st1" d="M241.9,95.4c52.1,30.6,105,59.7,158.6,87.5c8.6,4.4,16.2-8.5,7.6-13
			c-53.6-27.8-106.5-57-158.6-87.5C241.1,77.5,233.5,90.5,241.9,95.4L241.9,95.4z"/>
	</g>
</g>
<g id="XMLID_93_">
	<g id="XMLID_126_">
		<path id="XMLID_131_" class="st1" d="M410.6,180.6c12.4-9.7,24.6-19.9,39.1-26.5c3.7-1.7,4.5-7,2.7-10.3
			c-2.2-3.8-6.6-4.4-10.3-2.7c-15.6,7.1-28.7,18.4-42.1,28.8c-3.2,2.5-2.6,8,0,10.6C403.1,183.8,407.4,183.1,410.6,180.6
			L410.6,180.6z"/>
	</g>
</g>
<g id="XMLID_94_">
	<g id="XMLID_119_">
		<path id="XMLID_124_" class="st1" d="M449,154.5c9.7,0,9.7-15,0-15C439.3,139.5,439.3,154.5,449,154.5L449,154.5z"/>
	</g>
</g>
<g id="XMLID_95_">
	<g id="XMLID_112_">
		<path id="XMLID_117_" class="st1" d="M443.9,138.8C380.7,97.1,315.6,58.3,248.8,22.5c-8.5-4.6-16.1,8.4-7.6,13
			C308,71.2,373.1,110,436.4,151.8C444.4,157.1,452,144.1,443.9,138.8L443.9,138.8z"/>
	</g>
</g>
<g id="XMLID_96_">
	<g id="XMLID_105_">
		<path id="XMLID_110_" class="st1" d="M424.4,138.9c-1.4,0.7-2.5,1-4,0.7c1.1,4.2,2.2,8.4,3.3,12.5c0.9-1.1,1.7-2.1,2.6-3.2
			c3-3.8,3-9.1-1.5-11.8c-27.8-16.9-54.2-36.2-81-54.6c-8-5.5-15.5,7.5-7.6,13c26.8,18.4,53.2,37.8,81,54.6c-0.5-3.9-1-7.9-1.5-11.8
			c-0.9,1.1-1.7,2.1-2.6,3.2c-3.2,4-2.7,11.3,3.3,12.5c5.5,1.2,10.6,0.5,15.5-2.2C440.5,147.1,432.9,134.2,424.4,138.9L424.4,138.9z
			"/>
	</g>
</g>
<g id="XMLID_97_">
	<g id="XMLID_90_">
		<path id="XMLID_103_" class="st1" d="M335,83.8c-7.4-1.3-12.9-6.4-19-10.4c-6.9-4.5-14.8-6.9-22.1-10.5
			c-15.1-7.4-28.9-17.1-41-28.8c-6.9-6.7-17.6,3.9-10.6,10.6c13,12.5,27.8,23.2,44,31.1c7.8,3.8,16.2,6.4,23.4,11.4
			c6.7,4.6,13.1,9.7,21.3,11.1C340.4,99.9,344.5,85.4,335,83.8L335,83.8z"/>
	</g>
</g>
<g id="XMLID_99_">
	<g id="XMLID_84_">
		<path id="XMLID_88_" class="st1" d="M236.2,49.9c0.1,8.9,0.1,17.9,0.2,26.8c0.1,8.4,2.8,13.9,10.2,18
			c15.6,8.7,31.5,16.9,47.2,25.4c31.1,16.7,62.1,33.8,93.4,50.2c7.4,3.9,15.1,6.3,23.2,2.8c7.4-3.2,12.3-10,16.6-16.6
			c5.3-8.1-7.7-15.7-13-7.6c-3.2,4.9-7.6,12.5-14.5,10.6c-3.7-1-7.2-3.5-10.7-5.3c-4.7-2.5-9.3-5-14-7.5
			c-16.9-9.1-33.8-18.2-50.7-27.3c-16.9-9.1-33.8-18.2-50.7-27.3c-4.7-2.5-9.3-5-14-7.5c-2.6-1.4-6.9-2.7-8-5.3
			c-0.7-1.6-0.1-4.8-0.1-6.6c0-2.3,0-4.6-0.1-7c0-5.3-0.1-10.6-0.1-15.9C251.1,40.3,236.1,40.3,236.2,49.9L236.2,49.9z"/>
	</g>
</g>
<g id="XMLID_101_">
	<g id="XMLID_78_">
		<path id="XMLID_82_" class="st1" d="M314.3,91.7c13.3,14.6,27.6,27.9,44.7,37.9c15.5,9,32.4,16.2,45.4,28.9
			c5.5,5.4,14.1-0.1,12.5-7.3c-2.9-13.2-15-20.5-25.5-27.5c-13.2-8.8-26.3-17.5-39.5-26.3c-8.1-5.4-15.6,7.6-7.6,13
			c11.5,7.7,23.1,15.3,34.6,23c8.2,5.4,21.2,11.3,23.6,21.8c4.2-2.4,8.4-4.9,12.5-7.3c-13.2-12.9-29.8-20.7-45.6-29.6
			c-17.3-9.8-31.2-22.6-44.5-37.2C318.4,73.9,307.8,84.6,314.3,91.7L314.3,91.7z"/>
	</g>
</g>
<g id="XMLID_108_">
	<g id="XMLID_72_">
		<path id="XMLID_76_" class="st1" d="M390.3,152.1c0.7,3.6,1.4,7.1,2.2,10.7c1.6,8.2,15.5,6.5,14.7-2c-1.2-12.1-9.7-20.6-21.7-21.9
			c-7.6-0.8-9.9,10.5-3.8,14c1.4,0.8,1.7,1.1,2.5,2.4c2.8-3.7,5.6-7.3,8.5-11c-4.5-1.5-8-4.2-11-7.8c-6.2-7.4-16.8,3.3-10.6,10.6
			c4.7,5.6,10.7,9.3,17.6,11.7c6.3,2.1,11.7-5.6,8.5-11c-2-3.3-4.5-5.8-7.9-7.7c-1.3,4.7-2.5,9.3-3.8,14c3.3,0.4,6.4,3.7,6.7,6.9
			c4.9-0.7,9.8-1.3,14.7-2c-0.7-3.6-1.4-7.1-2.2-10.7C402.9,138.6,388.4,142.6,390.3,152.1L390.3,152.1z"/>
	</g>
</g>
<g id="XMLID_115_">
	<g id="XMLID_66_">
		<path id="XMLID_70_" class="st1" d="M378.6,134.6c-21.7-7.5-41.4-21.8-54.8-40.6c-3.6-5.1-6.8-10.6-11.1-15.2
			c-4.3-4.6-9.8-8.2-15.2-11.4c-12.5-7.2-25.3-13.9-37.9-20.8c-5.4-2.9-10.7,0.9-11.3,6.5c-0.5,5-1,9.9-1.6,14.9
			c-0.5,4.7-1.6,9.8,0.9,14.1c2,3.6,5.6,5.2,9.2,6.6c4.4,1.8,8.8,3.4,13.2,5.4c17,7.6,33,17.1,47.9,28.2c6.7,4.9,13-4.3,10.3-10.3
			c-5.6-12.1-14.4-22.3-25.3-29.9c-5.4-3.8-11.4-6.8-17.6-9c-4.4-1.6-14.4-2.7-13.8-9c0.4-4-3.7-7.5-7.5-7.5c-4.4,0-7.1,3.5-7.5,7.5
			c-1.8,18.2,19.4,20.2,31.2,26.3c12.3,6.4,21.7,16.6,27.5,29.2c3.4-3.4,6.8-6.8,10.3-10.3c-13.2-9.8-27.3-18.4-42.2-25.5
			c-3.5-1.7-7.1-3.3-10.6-4.8c-2.2-1-4.5-1.9-6.8-2.8c-1.3-0.5-3.8-2.1-5-1.9c-1.3-0.8-1.3-0.5,0.2,1c0-0.5,0.1-1.1,0.1-1.6
			c0.9-1.8,0.6-5.4,0.8-7.4c0.5-4.3,0.9-8.7,1.4-13c-3.8,2.2-7.5,4.3-11.3,6.5c12.9,7.1,26,13.8,38.7,21.3
			c5.4,3.2,10.3,6.7,14.1,11.7c3.8,5.1,7.1,10.6,11.1,15.6c15.1,19,35.9,33,58.8,40.9C383.7,152.2,387.7,137.7,378.6,134.6
			L378.6,134.6z"/>
	</g>
</g>
<g id="XMLID_122_">
	<g id="XMLID_60_">
		<path id="XMLID_64_" class="st1" d="M64.7,392.2c-3.9,3.6-3.3-0.6-1.3,1.7c1.4,1.5,4.2,2.6,5.9,3.7c3.4,2.1,6.7,4.2,10.1,6.3
			c7,4.4,14,8.8,21.1,13.1c14,8.8,28.1,17.5,42.1,26.3c7.3,4.5,15.1-5.8,9.1-11.8c-3.1-3.1-6.3-6.3-9.4-9.4c-3,3.9-6.1,7.9-9.1,11.8
			c19.4,11.5,38.9,23,58.3,34.4c4.6,2.7,9.1,5.4,13.7,8.1c2.6,1.5,5.1,3,7.7,4.6c1.4,0.8,4.3,1.9,5.2,3.3c1.7,2.7,0.4,9.6,0.3,12.8
			c0,5.6-0.1,11.3-0.1,16.9c-0.1,9.7,14.9,9.7,15,0c0-5.9,0.1-11.9,0.1-17.8c0-5.2,0.7-11-0.8-16c-1.6-5.3-6-8.5-10.5-11.2
			c-5.4-3.2-10.9-6.4-16.3-9.6c-21.7-12.8-43.4-25.7-65.1-38.5c-7.3-4.3-15.1,5.7-9.1,11.8c3.1,3.1,6.3,6.3,9.4,9.4
			c3-3.9,6.1-7.9,9.1-11.8c-16.6-10.3-33.1-20.7-49.7-31c-8.1-5.1-16.3-10.2-24.4-15.2c-6.9-4.3-14.8-9.2-22-2.5
			C47.1,388.2,57.7,398.7,64.7,392.2L64.7,392.2z"/>
	</g>
</g>
<g id="XMLID_129_">
	<g id="XMLID_54_">
		<path id="XMLID_58_" class="st1" d="M218.5,515c-0.5,4.7,0,9.4,1.2,14c1,3.8,5.4,6.5,9.2,5.2c3.9-1.3,6.3-5.2,5.2-9.2
			c-0.5-1.9-0.7-3-0.8-4.4c-0.1-1.9,0-3.7,0.1-5.6c0.4-3.9-3.7-7.7-7.5-7.5C221.6,507.7,219,510.8,218.5,515L218.5,515z"/>
	</g>
</g>
<g id="XMLID_136_">
	<g id="XMLID_48_">
		<path id="XMLID_52_" class="st1" d="M226.8,520.3c-18.6-15.9-40-27.5-61.1-39.6c-21.3-12.3-42.5-24.9-65-35c-3.7-1.7-8-1-10.3,2.7
			c-1.9,3.2-1,8.6,2.7,10.3c21.9,9.8,42.5,22,63.3,34c20.5,11.8,41.7,22.8,59.8,38.3C223.5,537.2,234.2,526.6,226.8,520.3
			L226.8,520.3z"/>
	</g>
</g>
<g id="XMLID_143_">
	<g id="XMLID_42_">
		<path id="XMLID_46_" class="st1" d="M100.1,444.1c-25.4-14.6-50.5-29.8-75.6-44.8c-8.3-5-15.9,8-7.6,13
			c25.2,15,50.3,30.1,75.6,44.8C100.9,461.9,108.5,448.9,100.1,444.1L100.1,444.1z"/>
	</g>
</g>
<g id="XMLID_150_">
	<g id="XMLID_36_">
		<path id="XMLID_40_" class="st1" d="M25.1,413.3c12.5-5.3,25-10.7,37.5-16c-2.5,0-5,0-7.6,0c14.3,11,29.4,20.9,45.2,29.6
			c15.8,8.7,32.7,15.1,47,26.4c6.7,5.3,13.3,10.9,20.6,15.4c7.1,4.4,15,7.1,22.7,10.1c6.5,2.5,13.7,5.5,17.9,11.2
			c2.9,4,5.8,10.9,2.1,15.3c3.5,0,7.1,0,10.6,0c-7.1-7-11.7-15.4-14-25c-4.8,1.3-9.6,2.7-14.5,4c1,3.3,2,6.7,3.1,10
			c1.1-2.8,2.3-5.6,3.4-8.5c-4,1.9-9.4-2.2-9.5-6.3c-2.5,2.5-5,5-7.5,7.5c2.8-0.1,3.8,1.1,4.2,3.8c3.7-2.8,7.3-5.6,11-8.5
			c-20.5-10.8-40-23.1-58.6-36.9c-6.8-5-15.8,6.6-9.1,11.8c4.7,3.6,9.3,7.3,14,10.9c7.6,5.9,16.8-3,10.6-10.6
			c-9.2-11.4-22.7-17.9-37.2-19.1c-6.4-0.6-10,8.6-5.3,12.8c8.6,7.6,17.2,15.2,25.7,22.8c7.2,6.4,17.4-3.7,10.6-10.6
			c-12.3-12.5-23.2-26.2-32.5-41.1c-5.1-8.2-17.8-0.8-13,7.6c1.7,2.9,3.4,5.8,5.1,8.6c1.4,2.4,3.7,5.2,4.3,7.9c0-1.3,0-2.7,0-4
			c-0.1,0.4-0.2,0.8-0.4,1.3c1.1-1.5,2.3-3,3.4-4.5c-0.2,0.1-0.4,0.3-0.6,0.4c1.3-0.3,2.5-0.7,3.8-1c-0.3,0-0.5-0.1-0.8-0.1
			c1.3,0.3,2.5,0.7,3.8,1c0.6,0.6,1.1,1.2,1.7,1.7c0,2.5,0,5,0,7.6c0.1-0.2,0.2-0.4,0.3-0.6c4.4-8.6-8.6-16.2-13-7.6
			c-5,9.9,9.4,18.1,15,8.8c2.7-4.4,0.8-9.1-1.5-13.1c-2.7-4.7-5.5-9.4-8.3-14.1c-4.3,2.5-8.6,5-13,7.6c10,15.9,21.6,30.7,34.8,44.1
			c3.5-3.5,7.1-7.1,10.6-10.6c-8.6-7.6-17.2-15.2-25.7-22.8c-1.8,4.3-3.5,8.5-5.3,12.8c10.7,0.9,19.9,6.5,26.6,14.7
			c3.5-3.5,7.1-7.1,10.6-10.6c-4.7-3.6-9.3-7.3-14-10.9c-3,3.9-6.1,7.9-9.1,11.8c18.5,13.8,38.1,26.2,58.6,36.9
			c6.2,3.3,12-2.1,11-8.5c-1.4-8.8-9.9-15.2-18.7-14.8c-4,0.2-7.6,3.3-7.5,7.5c0.5,16.1,17.8,26,32.1,19.2c2.9-1.4,4.4-5.5,3.4-8.5
			c-1-3.3-2-6.7-3.1-10c-2.8-9.2-16.7-5.4-14.5,4c2.8,12.1,9,23,17.9,31.7c2.7,2.7,8,3.1,10.6,0c8.6-10.2,7.2-24.2-0.5-34.6
			c-8.6-11.6-22.4-15.3-35.2-20.5c-13.9-5.7-24.5-16.4-36.6-25c-12.6-8.9-27.5-14.4-41-21.9c-15.8-8.7-30.9-18.7-45.2-29.6
			c-2.2-1.7-5.3-1-7.6,0c-12.5,5.3-25,10.7-37.5,16c-3.8,1.6-4.5,7.1-2.7,10.3C17.1,414.4,21.4,414.8,25.1,413.3L25.1,413.3z"/>
	</g>
</g>
<g id="XMLID_157_">
	<g id="XMLID_30_">
		<path id="XMLID_34_" class="st1" d="M120.3,450.7c-6.8-6.8-12.5-14.2-17.2-22.6c-2.8,3.7-5.6,7.3-8.5,11c3.8,1.4,7.4,3.5,10.5,6.1
			c3-3.9,6.1-7.9,9.1-11.8c-12.9-9.4-25.8-18.8-38.7-28.2c-5.3-3.8-11.8-10.9-18.7-11.2c-3-0.1-5.5,1.4-8.3,1.7
			c-3.5,0.4-6.3,0.4-8.7,3.3c-9.5,11.2,11.3,24.4,18.8,29.8c11.4,8.2,24.1,14.4,37.5,18.8c7.9,2.6,13.6-10.2,5.8-13.7
			c-2.7-1.2-5.1-2.7-7.3-4.8c-1.1-1.1-2.2-2.2-3.3-3.3c-0.6-0.6-1.9-2.9-1.7-2c-0.3,1.9-0.5,3.9-0.8,5.8c-0.4,0.4-0.9,0.7-1.3,1.1
			c-1.9,0.3-3.9,0.5-5.8,0.8c0.3,0.1,0.7,0.2,1,0.3c9.4,2.4,13.3-12,4-14.5c-9.4-2.4-14.8,7.9-9.5,15.2c4.3,5.8,10.4,11.5,17,14.4
			c1.9-4.6,3.9-9.1,5.8-13.7c-9.5-3.1-18.5-7.3-26.9-12.6c-3.9-2.5-7.8-5.1-11.4-8.1c-2.4-1.9-9-6.2-9.5-9.2c0,1.3,0,2.7,0,4
			c-4.2,2.3-5.2,3.5-2.9,3.4c0.6,0.1,1.2,0.1,1.7-0.1c1.2-0.1,2.7-0.3,3.7-0.9c0.4-0.2,0.9-0.4,1.3-0.6c-1.1-0.5-1.2-0.5-0.4,0
			c1.3,0.6,2.5,1.8,3.6,2.6c5.3,3.8,10.5,7.7,15.8,11.5c10.5,7.7,21,15.4,31.6,23.1c6.8,5,15.7-6.4,9.1-11.8
			c-5.2-4.3-10.7-7.5-17.1-9.9c-6.4-2.4-11.5,5.7-8.5,11c5.3,9.4,11.9,18,19.5,25.6C116.6,468.1,127.2,457.5,120.3,450.7
			L120.3,450.7z"/>
	</g>
</g>
<g id="XMLID_164_">
	<g id="XMLID_24_">
		<path id="XMLID_28_" class="st1" d="M329.1,114.7C329.1,114.7,329,114.7,329.1,114.7c1,0.6,2.1,1.3,3.2,1.9c0,0,0,0-0.1-0.1
			c0.6,1.1,1.3,2.2,1.9,3.3c0,0,0,0,0-0.1c0.1,0.7,0.2,1.3,0.3,2c0,0,0-0.1,0-0.1c-0.1,0.7-0.2,1.3-0.3,2c0-0.1,0-0.1,0-0.2
			c-0.3,0.6-0.5,1.2-0.8,1.8c0-0.1,0.1-0.1,0.1-0.2c-0.4,0.5-0.8,1-1.2,1.5c0,0,0.1-0.1,0.1-0.1c-0.5,0.4-1,0.8-1.5,1.2
			c0,0,0.1,0,0.1-0.1c-0.6,0.3-1.2,0.5-1.8,0.8c0,0,0.1,0,0.1,0c-0.7,0.1-1.3,0.2-2,0.3c0,0,0.1,0,0.1,0c2-0.1,3.9-0.8,5.3-2.2
			c0.7-0.7,1.2-1.5,1.6-2.4c0.5-0.9,0.7-1.9,0.6-2.9c-0.1-1.9-0.7-4-2.2-5.3c-1.4-1.3-3.3-2.3-5.3-2.2c-2.1,0.1-4.1,0.8-5.6,2.3
			c-0.9,0.9-1.8,2.3-2.1,3.6c-0.1,0.6-0.3,1.5-0.3,2.1c0,0.5,0.1,1.7,0.3,2.2c0.3,0.6,0.5,1.2,0.8,1.8c0.3,0.6,0.8,1.1,1.2,1.6
			c1,0.9,2.1,1.6,3.4,2c1.9,0.5,4.1,0.2,5.8-0.8c0.9-0.5,1.6-1.1,2.1-1.9c0.7-0.7,1.1-1.6,1.3-2.6c0.4-1.9,0.3-4.1-0.8-5.8
			C332.5,116.5,331,115.2,329.1,114.7L329.1,114.7z"/>
	</g>
</g>
</svg>
